<svg xmlns="http://www.w3.org/2000/svg" width="1280" height="760" viewBox="0 0 1280 760" fill="none">
  <rect width="1280" height="760" fill="#F3EFE6"/>
  <rect x="48" y="40" width="1184" height="680" rx="24" fill="#FFFDF8" stroke="#D8CDBB"/>
  <rect x="48" y="40" width="1184" height="72" rx="24" fill="#173A2E"/>
  <circle cx="96" cy="76" r="10" fill="#FF8A65"/>
  <circle cx="128" cy="76" r="10" fill="#FFD166"/>
  <circle cx="160" cy="76" r="10" fill="#8BC34A"/>
  <text x="208" y="84" fill="#FFFDF8" font-family="Menlo, monospace" font-size="26">Claude Desktop + parcel-mcp</text>
  <rect x="88" y="152" width="460" height="520" rx="20" fill="#F6F1E7"/>
  <text x="116" y="196" fill="#173A2E" font-family="Menlo, monospace" font-size="24">User</text>
  <text x="116" y="242" fill="#173A2E" font-family="Menlo, monospace" font-size="21">Track AWB 1234567890. Needed by</text>
  <text x="116" y="274" fill="#173A2E" font-family="Menlo, monospace" font-size="21">2026-05-26T12:00:00+05:30.</text>
  <rect x="592" y="152" width="592" height="520" rx="20" fill="#10251E"/>
  <text x="624" y="196" fill="#9CE0B8" font-family="Menlo, monospace" font-size="22">{</text>
  <text x="624" y="234" fill="#D4F7E3" font-family="Menlo, monospace" font-size="21">"status": "at_risk",</text>
  <text x="624" y="268" fill="#D4F7E3" font-family="Menlo, monospace" font-size="21">"carrier": "bluedart",</text>
  <text x="624" y="302" fill="#D4F7E3" font-family="Menlo, monospace" font-size="21">"current_location": "Delhi Hub",</text>
  <text x="624" y="336" fill="#D4F7E3" font-family="Menlo, monospace" font-size="21">"predicted_delivery": {</text>
  <text x="656" y="370" fill="#D4F7E3" font-family="Menlo, monospace" font-size="21">"basis": "historical_data"</text>
  <text x="624" y="404" fill="#D4F7E3" font-family="Menlo, monospace" font-size="21">},</text>
  <text x="624" y="438" fill="#D4F7E3" font-family="Menlo, monospace" font-size="21">"reasoning": "Currently at Delhi hub.</text>
  <text x="624" y="472" fill="#D4F7E3" font-family="Menlo, monospace" font-size="21">Typical Blue Dart transit leaves a</text>
  <text x="624" y="506" fill="#D4F7E3" font-family="Menlo, monospace" font-size="21">tight buffer against your deadline."</text>
  <text x="624" y="540" fill="#9CE0B8" font-family="Menlo, monospace" font-size="22">}</text>
  <text x="88" y="714" fill="#6B5F51" font-family="Menlo, monospace" font-size="18">Illustrative screenshot asset for README documentation.</text>
</svg>
